<svg width="32" height="32" viewBox="0 0 32 32" fill="none" xmlns="http://www.w3.org/2000/svg">
<circle cx="16" cy="16" r="16" fill="white"/>
<path d="M20.8997 12.1431C20.4413 11.3202 19.8109 10.6938 19.0086 10.2637C18.2063 9.83357 17.2703 9.61851 16.2006 9.61851C15.0162 9.61851 13.9656 9.88032 13.0487 10.4039C12.1318 10.9275 11.4155 11.6755 10.8997 12.648C10.384 13.6204 10.1261 14.7424 10.1261 16.014C10.1261 17.323 10.384 18.4638 10.8997 19.4362C11.4346 20.4086 12.17 21.1566 13.106 21.6802C14.042 22.2038 15.1308 22.4656 16.3725 22.4656C17.9007 22.4656 19.1519 22.0729 20.1261 21.2875C21.1003 20.4834 21.7402 19.3707 22.0458 17.9495H15.1691V14.9481H26V18.3703C25.7326 19.7354 25.1595 20.9977 24.2808 22.1571C23.4021 23.3165 22.2655 24.2515 20.8711 24.9621C19.4957 25.654 17.9484 26 16.2292 26C14.2999 26 12.5521 25.5792 10.9857 24.7377C9.4384 23.8775 8.21585 22.69 7.31805 21.1753C6.43935 19.6606 6 17.9402 6 16.014C6 14.0879 6.43935 12.3675 7.31805 10.8527C8.21585 9.31931 9.4384 8.13184 10.9857 7.29032C12.5521 6.43011 14.2904 6 16.2006 6C18.4546 6 20.4126 6.54231 22.0745 7.62693C23.7364 8.69285 24.8825 10.1982 25.5129 12.1431H20.8997Z" fill="#FFBB00"/>
</svg>
