<svg width="188" height="19" viewBox="0 0 188 19" fill="none" xmlns="http://www.w3.org/2000/svg">
<path d="M12.4675 7.09206C12.0839 6.38924 11.5565 5.85414 10.8851 5.48676C10.2138 5.11938 9.43058 4.93569 8.53547 4.93569C7.54446 4.93569 6.66534 5.15931 5.89811 5.60656C5.13087 6.0538 4.53147 6.69273 4.0999 7.52333C3.66833 8.35393 3.45255 9.31232 3.45255 10.3985C3.45255 11.5166 3.66833 12.491 4.0999 13.3216C4.54746 14.1522 5.16284 14.7911 5.94606 15.2383C6.72928 15.6856 7.64037 15.9092 8.67933 15.9092C9.95805 15.9092 11.005 15.5738 11.8202 14.9029C12.6354 14.2161 13.1708 13.2657 13.4266 12.0517H7.67233V9.48802H16.7353V12.4111C16.5115 13.5771 16.032 14.6553 15.2967 15.6456C14.5614 16.636 13.6104 17.4346 12.4436 18.0416C11.2927 18.6326 9.99801 18.9281 8.55945 18.9281C6.94506 18.9281 5.48252 18.5687 4.17183 17.8499C2.87712 17.1152 1.85415 16.1009 1.1029 14.8071C0.367633 13.5132 0 12.0437 0 10.3985C0 8.75326 0.367633 7.28373 1.1029 5.98991C1.85415 4.68012 2.87712 3.66583 4.17183 2.94704C5.48252 2.21227 6.93707 1.84489 8.53547 1.84489C10.4216 1.84489 12.0599 2.30811 13.4506 3.23455C14.8412 4.14502 15.8002 5.43085 16.3277 7.09206H12.4675Z" fill="#FFBB00"/>
<path d="M32.1178 5.51072V18.7844H28.7372V17.1072C28.3056 17.6822 27.7382 18.1375 27.0349 18.4729C26.3475 18.7924 25.5963 18.9521 24.7811 18.9521C23.7421 18.9521 22.8231 18.7364 22.0239 18.3052C21.2247 17.8579 20.5933 17.211 20.1298 16.3644C19.6822 15.5019 19.4584 14.4796 19.4584 13.2976V5.51072H22.8151V12.8184C22.8151 13.8726 23.0788 14.6873 23.6063 15.2623C24.1338 15.8214 24.853 16.1009 25.7641 16.1009C26.6912 16.1009 27.4185 15.8214 27.9459 15.2623C28.4734 14.6873 28.7372 13.8726 28.7372 12.8184V5.51072H32.1178Z" fill="#FFBB00"/>
<path d="M37.4916 3.92938C36.9002 3.92938 36.4047 3.74569 36.0051 3.37831C35.6215 2.99496 35.4297 2.52375 35.4297 1.96469C35.4297 1.40563 35.6215 0.942412 36.0051 0.575031C36.4047 0.191677 36.9002 0 37.4916 0C38.083 0 38.5705 0.191677 38.9541 0.575031C39.3537 0.942412 39.5535 1.40563 39.5535 1.96469C39.5535 2.52375 39.3537 2.99496 38.9541 3.37831C38.5705 3.74569 38.083 3.92938 37.4916 3.92938ZM39.1459 5.51072V18.7844H35.7893V5.51072H39.1459Z" fill="#FFBB00"/>
<path d="M41.9588 12.0996C41.9588 10.7579 42.2226 9.56789 42.75 8.52963C43.2935 7.49138 44.0208 6.69273 44.9319 6.13367C45.8589 5.57461 46.8899 5.29508 48.0248 5.29508C49.0158 5.29508 49.8789 5.49475 50.6142 5.89407C51.3654 6.2934 51.9648 6.79655 52.4124 7.40353V5.51072H55.793V18.7844H52.4124V16.8436C51.9808 17.4666 51.3814 17.9857 50.6142 18.401C49.8629 18.8003 48.9918 19 48.0008 19C46.8819 19 45.8589 18.7125 44.9319 18.1375C44.0208 17.5624 43.2935 16.7558 42.75 15.7175C42.2226 14.6633 41.9588 13.4573 41.9588 12.0996ZM52.4124 12.1475C52.4124 11.3329 52.2525 10.6381 51.9329 10.0631C51.6132 9.47205 51.1816 9.0248 50.6381 8.72131C50.0947 8.40185 49.5113 8.24212 48.8879 8.24212C48.2645 8.24212 47.6891 8.39386 47.1616 8.69735C46.6341 9.00084 46.2026 9.44809 45.8669 10.0391C45.5472 10.6141 45.3874 11.301 45.3874 12.0996C45.3874 12.8983 45.5472 13.6011 45.8669 14.2081C46.2026 14.7991 46.6341 15.2543 47.1616 15.5738C47.7051 15.8932 48.2805 16.053 48.8879 16.053C49.5113 16.053 50.0947 15.9012 50.6381 15.5977C51.1816 15.2783 51.6132 14.831 51.9329 14.256C52.2525 13.665 52.4124 12.9622 52.4124 12.1475Z" fill="#FFBB00"/>
<path d="M64.8872 12.0996C64.8872 10.7579 65.1509 9.56789 65.6784 8.52963C66.2218 7.49138 66.9571 6.69273 67.8842 6.13367C68.8112 5.57461 69.8422 5.29508 70.9771 5.29508C71.8402 5.29508 72.6634 5.48676 73.4466 5.87011C74.2298 6.23749 74.8532 6.73266 75.3167 7.35561V1.05423H78.7213V18.7844H75.3167V16.8197C74.9011 17.4746 74.3177 18.0017 73.5665 18.401C72.8152 18.8003 71.9441 19 70.9531 19C69.8342 19 68.8112 18.7125 67.8842 18.1375C66.9571 17.5624 66.2218 16.7558 65.6784 15.7175C65.1509 14.6633 64.8872 13.4573 64.8872 12.0996ZM75.3407 12.1475C75.3407 11.3329 75.1809 10.6381 74.8612 10.0631C74.5415 9.47205 74.1099 9.0248 73.5665 8.72131C73.023 8.40185 72.4396 8.24212 71.8162 8.24212C71.1929 8.24212 70.6174 8.39386 70.09 8.69735C69.5625 9.00084 69.1309 9.44809 68.7953 10.0391C68.4756 10.6141 68.3157 11.301 68.3157 12.0996C68.3157 12.8983 68.4756 13.6011 68.7953 14.2081C69.1309 14.7991 69.5625 15.2543 70.09 15.5738C70.6334 15.8932 71.2088 16.053 71.8162 16.053C72.4396 16.053 73.023 15.9012 73.5665 15.5977C74.1099 15.2783 74.5415 14.831 74.8612 14.256C75.1809 13.665 75.3407 12.9622 75.3407 12.1475Z" fill="white"/>
<path d="M94.707 11.86C94.707 12.3392 94.675 12.7705 94.6111 13.1538H84.9008C84.9807 14.1122 85.3164 14.863 85.9078 15.4061C86.4992 15.9491 87.2265 16.2207 88.0896 16.2207C89.3364 16.2207 90.2235 15.6856 90.7509 14.6154H94.3713C93.9877 15.8932 93.2524 16.9475 92.1655 17.7781C91.0786 18.5927 89.7439 19 88.1615 19C86.8828 19 85.732 18.7205 84.709 18.1614C83.702 17.5864 82.9108 16.7797 82.3353 15.7415C81.7759 14.7032 81.4962 13.5053 81.4962 12.1475C81.4962 10.7739 81.7759 9.56789 82.3353 8.52963C82.8948 7.49138 83.678 6.69273 84.685 6.13367C85.692 5.57461 86.8508 5.29508 88.1615 5.29508C89.4243 5.29508 90.5511 5.56662 91.5421 6.10971C92.5491 6.65279 93.3244 7.42749 93.8678 8.4338C94.4273 9.42413 94.707 10.5662 94.707 11.86ZM91.2305 10.9016C91.2145 10.0391 90.9028 9.35225 90.2954 8.84111C89.688 8.314 88.9447 8.05044 88.0656 8.05044C87.2345 8.05044 86.5312 8.30601 85.9557 8.81715C85.3963 9.31232 85.0526 10.0071 84.9248 10.9016H91.2305Z" fill="white"/>
<path d="M102.774 10.3985C102.774 8.75326 103.142 7.28373 103.877 5.98991C104.628 4.68012 105.643 3.66583 106.922 2.94704C108.217 2.21227 109.663 1.84489 111.262 1.84489C113.132 1.84489 114.77 2.32409 116.177 3.28247C117.583 4.24086 118.566 5.56662 119.126 7.25977H115.266C114.882 6.46112 114.339 5.86213 113.635 5.4628C112.948 5.06347 112.149 4.86381 111.238 4.86381C110.263 4.86381 109.392 5.09542 108.624 5.55864C107.873 6.00588 107.282 6.64481 106.85 7.47541C106.435 8.30601 106.227 9.28037 106.227 10.3985C106.227 11.5006 106.435 12.475 106.85 13.3216C107.282 14.1522 107.873 14.7991 108.624 15.2623C109.392 15.7095 110.263 15.9332 111.238 15.9332C112.149 15.9332 112.948 15.7335 113.635 15.3342C114.339 14.9189 114.882 14.3119 115.266 13.5132H119.126C118.566 15.2224 117.583 16.5561 116.177 17.5145C114.786 18.4569 113.148 18.9281 111.262 18.9281C109.663 18.9281 108.217 18.5687 106.922 17.8499C105.643 17.1152 104.628 16.1009 103.877 14.8071C103.142 13.5132 102.774 12.0437 102.774 10.3985Z" fill="white"/>
<path d="M134.892 5.51072V18.7844H131.511V17.1072C131.08 17.6822 130.512 18.1375 129.809 18.4729C129.122 18.7924 128.37 18.9521 127.555 18.9521C126.516 18.9521 125.597 18.7364 124.798 18.3052C123.999 17.8579 123.367 17.211 122.904 16.3644C122.456 15.5019 122.233 14.4796 122.233 13.2976V5.51072H125.589V12.8184C125.589 13.8726 125.853 14.6873 126.38 15.2623C126.908 15.8214 127.627 16.1009 128.538 16.1009C129.465 16.1009 130.193 15.8214 130.72 15.2623C131.248 14.6873 131.511 13.8726 131.511 12.8184V5.51072H134.892Z" fill="white"/>
<path d="M141.92 7.57125C142.352 6.86843 142.911 6.31736 143.598 5.91803C144.302 5.51871 145.101 5.31904 145.996 5.31904V8.84111H145.109C144.054 8.84111 143.255 9.08869 142.711 9.58386C142.184 10.079 141.92 10.9416 141.92 12.1715V18.7844H138.563V5.51072H141.92V7.57125Z" fill="white"/>
<path d="M153.699 19C152.613 19 151.638 18.8083 150.774 18.425C149.911 18.0256 149.224 17.4905 148.712 16.8197C148.217 16.1488 147.945 15.4061 147.897 14.5914H151.278C151.342 15.1026 151.59 15.5259 152.021 15.8613C152.469 16.1967 153.02 16.3644 153.676 16.3644C154.315 16.3644 154.81 16.2367 155.162 15.9811C155.53 15.7255 155.713 15.3981 155.713 14.9987C155.713 14.5675 155.49 14.248 155.042 14.0404C154.611 13.8167 153.915 13.5771 152.956 13.3216C151.965 13.082 151.15 12.8344 150.511 12.5788C149.887 12.3232 149.344 11.9319 148.88 11.4048C148.433 10.8777 148.209 10.1669 148.209 9.27238C148.209 8.53762 148.417 7.86675 148.832 7.25977C149.264 6.65279 149.871 6.1736 150.655 5.82219C151.454 5.47079 152.389 5.29508 153.46 5.29508C155.042 5.29508 156.305 5.69441 157.248 6.49306C158.191 7.27575 158.71 8.33796 158.806 9.6797H155.594C155.546 9.15258 155.322 8.73728 154.922 8.4338C154.539 8.11433 154.019 7.9546 153.364 7.9546C152.756 7.9546 152.285 8.06641 151.949 8.29004C151.63 8.51366 151.47 8.82514 151.47 9.22446C151.47 9.67171 151.693 10.0151 152.141 10.2547C152.589 10.4784 153.284 10.71 154.227 10.9496C155.186 11.1892 155.977 11.4367 156.601 11.6923C157.224 11.9479 157.759 12.3472 158.207 12.8903C158.671 13.4174 158.91 14.1202 158.926 14.9987C158.926 15.7654 158.71 16.4523 158.279 17.0593C157.863 17.6662 157.256 18.1454 156.457 18.4968C155.674 18.8323 154.754 19 153.699 19Z" fill="white"/>
<path d="M167.939 19C166.661 19 165.51 18.7205 164.487 18.1614C163.464 17.5864 162.657 16.7797 162.065 15.7415C161.49 14.7032 161.202 13.5053 161.202 12.1475C161.202 10.7898 161.498 9.59185 162.089 8.55359C162.697 7.51534 163.52 6.71669 164.559 6.15763C165.598 5.5826 166.757 5.29508 168.035 5.29508C169.314 5.29508 170.473 5.5826 171.512 6.15763C172.551 6.71669 173.366 7.51534 173.957 8.55359C174.565 9.59185 174.868 10.7898 174.868 12.1475C174.868 13.5053 174.557 14.7032 173.933 15.7415C173.326 16.7797 172.495 17.5864 171.44 18.1614C170.401 18.7205 169.234 19 167.939 19ZM167.939 16.0769C168.547 16.0769 169.114 15.9332 169.642 15.6456C170.185 15.3422 170.617 14.8949 170.936 14.3039C171.256 13.7129 171.416 12.9941 171.416 12.1475C171.416 10.8857 171.08 9.91929 170.409 9.24842C169.754 8.56158 168.946 8.21816 167.987 8.21816C167.028 8.21816 166.221 8.56158 165.566 9.24842C164.926 9.91929 164.607 10.8857 164.607 12.1475C164.607 13.4094 164.918 14.3838 165.542 15.0706C166.181 15.7415 166.98 16.0769 167.939 16.0769Z" fill="white"/>
<path d="M182.773 19C181.686 19 180.711 18.8083 179.848 18.425C178.985 18.0256 178.298 17.4905 177.786 16.8197C177.291 16.1488 177.019 15.4061 176.971 14.5914H180.352C180.416 15.1026 180.663 15.5259 181.095 15.8613C181.542 16.1967 182.094 16.3644 182.749 16.3644C183.389 16.3644 183.884 16.2367 184.236 15.9811C184.603 15.7255 184.787 15.3981 184.787 14.9987C184.787 14.5675 184.563 14.248 184.116 14.0404C183.684 13.8167 182.989 13.5771 182.03 13.3216C181.039 13.082 180.224 12.8344 179.584 12.5788C178.961 12.3232 178.418 11.9319 177.954 11.4048C177.506 10.8777 177.283 10.1669 177.283 9.27238C177.283 8.53762 177.491 7.86675 177.906 7.25977C178.338 6.65279 178.945 6.1736 179.728 5.82219C180.527 5.47079 181.463 5.29508 182.533 5.29508C184.116 5.29508 185.379 5.69441 186.322 6.49306C187.265 7.27575 187.784 8.33796 187.88 9.6797H184.667C184.619 9.15258 184.396 8.73728 183.996 8.4338C183.612 8.11433 183.093 7.9546 182.438 7.9546C181.83 7.9546 181.359 8.06641 181.023 8.29004C180.703 8.51366 180.543 8.82514 180.543 9.22446C180.543 9.67171 180.767 10.0151 181.215 10.2547C181.662 10.4784 182.358 10.71 183.301 10.9496C184.26 11.1892 185.051 11.4367 185.674 11.6923C186.298 11.9479 186.833 12.3472 187.281 12.8903C187.744 13.4174 187.984 14.1202 188 14.9987C188 15.7654 187.784 16.4523 187.353 17.0593C186.937 17.6662 186.33 18.1454 185.53 18.4968C184.747 18.8323 183.828 19 182.773 19Z" fill="white"/>
</svg>
