<svg width="24" height="12" viewBox="0 0 24 12" fill="none" xmlns="http://www.w3.org/2000/svg">
<path d="M0 1C0 0.447715 0.447715 0 1 0H23C23.5523 0 24 0.447715 24 1C24 1.55228 23.5523 2 23 2H1C0.447716 2 0 1.55228 0 1Z" fill="white"/>
<path d="M0 5.99998C0 5.33723 0.537259 4.79998 1.2 4.79998H22.8C23.4627 4.79998 24 5.33723 24 5.99998C24 6.66272 23.4627 7.19998 22.8 7.19998H1.2C0.537258 7.19998 0 6.66272 0 5.99998Z" fill="white"/>
<path d="M0 11C0 10.4477 0.447715 10 1 10H23C23.5523 10 24 10.4477 24 11C24 11.5523 23.5523 12 23 12H1C0.447716 12 0 11.5523 0 11Z" fill="white"/>
</svg>
