<svg width="20" height="20" fill="none" xmlns="http://www.w3.org/2000/svg"><g clip-path="url(#a)"><path fill-rule="evenodd" clip-rule="evenodd" d="M2.356.639A2.181 2.181 0 0 1 5.62.843l2.244 2.882a2.18 2.18 0 0 1 .393 1.868L7.573 8.33a.848.848 0 0 0 .222.804l3.071 3.071a.848.848 0 0 0 .805.223l2.737-.684a2.181 2.181 0 0 1 1.867.393l2.883 2.243a2.18 2.18 0 0 1 .203 3.264l-1.292 1.292c-.925.925-2.308 1.331-3.596.878a23.29 23.29 0 0 1-8.763-5.525A23.292 23.292 0 0 1 .185 5.528C-.267 4.24.139 2.855 1.064 1.93L2.356.64Z" fill="#B2B2B2"/></g><defs><clipPath id="a"><path fill="#fff" d="M0 0h20v20H0z"/></clipPath></defs></svg>