<svg width="24" height="25" fill="none" xmlns="http://www.w3.org/2000/svg"><ellipse cx="12.5" cy="12.5" rx="8.5" ry="9" fill="#FB0"/><path d="M15.5 11.5a1.5 1.5 0 1 0 0-3 1.5 1.5 0 0 0 0 3ZM8.5 11.5a1.5 1.5 0 1 0 0-3 1.5 1.5 0 0 0 0 3Z" fill="#000"/><path d="M11.99 2.5C6.47 2.5 2 6.98 2 12.5s4.47 10 9.99 10c5.53 0 10.01-4.48 10.01-10s-4.48-10-10.01-10Zm.01 18c-4.42 0-8-3.58-8-8s3.58-8 8-8 8 3.58 8 8-3.58 8-8 8Zm0-6c-2.33 0-4.32 1.45-5.12 3.5h1.67c.69-1.19 1.97-2 3.45-2 1.48 0 2.75.81 3.45 2h1.67c-.8-2.05-2.79-3.5-5.12-3.5Z" fill="#000"/></svg>